<?xml version="1.0" encoding="iso-8859-1"?>
<!-- Generator: Adobe Illustrator 19.0.0, SVG Export Plug-In . SVG Version: 6.00 Build 0)  -->
<svg xmlns="http://www.w3.org/2000/svg" xmlns:xlink="http://www.w3.org/1999/xlink" version="1.1" id="Layer_1" x="0px" y="0px" viewBox="0 0 512 512" style="enable-background:new 0 0 512 512;" xml:space="preserve" width="512px" height="512px">
<g>
	<g>
		<g>
			<path d="M503.467,128c-16.657,0-30.635,9.037-37.692,22.4C423.27,95.932,348.971,59.733,264.533,59.733     c-108.919,0-202.675,59.324-230.656,145.067H8.533C3.814,204.8,0,208.614,0,213.333v85.333c0,4.719,3.814,8.533,8.533,8.533     h25.344c10.607,32.367,31.215,61.952,59.989,86.093v50.441c0,4.719,3.814,8.533,8.533,8.533h51.2     c4.719,0,8.533-3.814,8.533-8.533v-10.385c63.667,24.798,141.133,24.798,204.8,0.017v10.368c0,4.719,3.814,8.533,8.533,8.533     h51.2c4.719,0,8.533-3.814,8.533-8.533v-50.338c44.058-36.907,68.267-85.547,68.267-137.395c0-31.599-9.19-61.449-25.412-87.919     c0.964-13.03,11.716-23.014,25.412-23.014c4.719,0,8.533-3.814,8.533-8.533S508.186,128,503.467,128z M102.4,247.467     c-14.592,0-25.6-18.338-25.6-42.667s11.008-42.667,25.6-42.667c14.592,0,25.6,18.338,25.6,42.667S116.992,247.467,102.4,247.467z      M213.333,162.133c18.825,0,34.133,15.309,34.133,34.133S232.158,230.4,213.333,230.4c-18.825,0-34.133-15.309-34.133-34.133     S194.509,162.133,213.333,162.133z M332.8,349.867c-18.825,0-34.133-15.309-34.133-34.133S313.975,281.6,332.8,281.6     c18.825,0,34.133,15.309,34.133,34.133S351.625,349.867,332.8,349.867z M364.433,176.7L193.766,347.366     c-1.664,1.664-3.849,2.5-6.033,2.5c-2.185,0-4.369-0.836-6.033-2.5c-3.336-3.336-3.336-8.73,0-12.066l170.667-170.667     c3.337-3.337,8.73-3.337,12.066,0C367.77,167.97,367.77,173.363,364.433,176.7z" fill="#ababab"/>
			<path d="M332.8,298.667c-9.412,0-17.067,7.654-17.067,17.067S323.388,332.8,332.8,332.8c9.412,0,17.067-7.654,17.067-17.067     S342.212,298.667,332.8,298.667z" fill="#ababab"/>
			<path d="M213.333,213.333c9.412,0,17.067-7.654,17.067-17.067s-7.654-17.067-17.067-17.067c-9.412,0-17.067,7.654-17.067,17.067     S203.921,213.333,213.333,213.333z" fill="#ababab"/>
			<path d="M102.4,179.2c-2.125,0-8.533,9.079-8.533,25.6c0,16.521,6.409,25.6,8.533,25.6c2.125,0,8.533-9.079,8.533-25.6     C110.933,188.279,104.525,179.2,102.4,179.2z" fill="#ababab"/>
		</g>
	</g>
</g>
<g>
</g>
<g>
</g>
<g>
</g>
<g>
</g>
<g>
</g>
<g>
</g>
<g>
</g>
<g>
</g>
<g>
</g>
<g>
</g>
<g>
</g>
<g>
</g>
<g>
</g>
<g>
</g>
<g>
</g>
</svg>
