<?xml version="1.0" encoding="iso-8859-1"?>
<!-- Generator: Adobe Illustrator 17.1.0, SVG Export Plug-In . SVG Version: 6.00 Build 0)  -->
<!DOCTYPE svg PUBLIC "-//W3C//DTD SVG 1.1//EN" "http://www.w3.org/Graphics/SVG/1.1/DTD/svg11.dtd">
<svg xmlns="http://www.w3.org/2000/svg" xmlns:xlink="http://www.w3.org/1999/xlink" version="1.1" id="Capa_1" x="0px" y="0px" viewBox="0 0 329 329" style="enable-background:new 0 0 329 329;" xml:space="preserve" width="512px" height="512px">
<path d="M310.912,0H18.088C8.114,0,0,8.114,0,18.088v292.823C0,320.886,8.114,329,18.088,329h292.823  c9.974,0,18.088-8.114,18.088-18.088V18.088C329,8.114,320.886,0,310.912,0z M76,284.433c0,4.86-4.211,8.567-9.715,8.567h-17.07  C43.711,293,39,289.294,39,284.433V185.46c0-4.86,4.711-8.46,10.215-8.46h17.07c5.503,0,9.715,3.6,9.715,8.46V284.433z M147,286.2  c0,4.86-4.211,8.8-9.715,8.8h-17.07c-5.503,0-10.215-3.94-10.215-8.8V137.77c0-4.86,4.711-8.77,10.215-8.77h17.07  c5.503,0,9.715,3.91,9.715,8.77V286.2z M219,285.317c0,4.86-4.211,8.683-9.715,8.683h-17.07c-5.503,0-10.215-3.823-10.215-8.683  V96.263c0-4.86,4.711-9.263,10.215-9.263h17.07c5.503,0,9.715,4.403,9.715,9.263V285.317z M289,285.317  c0,4.86-4.211,8.683-9.715,8.683h-17.07c-5.503,0-10.215-3.823-10.215-8.683V47.69c0-4.86,4.711-8.69,10.215-8.69h17.07  c5.503,0,9.715,3.83,9.715,8.69V285.317z" fill="#ababab"/>
<g>
</g>
<g>
</g>
<g>
</g>
<g>
</g>
<g>
</g>
<g>
</g>
<g>
</g>
<g>
</g>
<g>
</g>
<g>
</g>
<g>
</g>
<g>
</g>
<g>
</g>
<g>
</g>
<g>
</g>
</svg>
